<svg width="100" height="95" viewBox="0 0 100 95" fill="none" xmlns="http://www.w3.org/2000/svg">
<g clip-path="url(#clip0_125_194)">
<path d="M12.5713 49C10.8993 49 9.3593 48.582 7.9513 47.746C6.5873 46.91 5.4873 45.81 4.6513 44.446C3.8153 43.038 3.3973 41.498 3.3973 39.826V36.196H12.1093V39.43C12.1093 39.65 12.1753 39.848 12.3073 40.024C12.4833 40.156 12.6813 40.222 12.9013 40.222H41.3473C41.5673 40.222 41.7433 40.156 41.8753 40.024C42.0513 39.848 42.1393 39.65 42.1393 39.43V30.388C42.1393 30.168 42.0513 29.992 41.8753 29.86C41.7433 29.728 41.5673 29.662 41.3473 29.662H12.5713C10.8993 29.662 9.3593 29.244 7.9513 28.408C6.5873 27.572 5.4873 26.472 4.6513 25.108C3.8153 23.7 3.3973 22.138 3.3973 20.422V10.654C3.3973 8.982 3.8153 7.464 4.6513 6.1C5.4873 4.692 6.5873 3.57 7.9513 2.734C9.3593 1.898 10.8993 1.48 12.5713 1.48H41.7433C43.4153 1.48 44.9333 1.898 46.2973 2.734C47.7053 3.57 48.8273 4.692 49.6633 6.1C50.4993 7.464 50.9173 8.982 50.9173 10.654V14.284H42.1393V11.05C42.1393 10.83 42.0513 10.654 41.8753 10.522C41.7433 10.346 41.5673 10.258 41.3473 10.258H12.9013C12.6813 10.258 12.4833 10.346 12.3073 10.522C12.1753 10.654 12.1093 10.83 12.1093 11.05V20.092C12.1093 20.312 12.1753 20.488 12.3073 20.62C12.4833 20.752 12.6813 20.818 12.9013 20.818H41.7433C43.4153 20.818 44.9333 21.236 46.2973 22.072C47.7053 22.908 48.8273 24.03 49.6633 25.438C50.4993 26.802 50.9173 28.342 50.9173 30.058V39.826C50.9173 41.498 50.4993 43.038 49.6633 44.446C48.8273 45.81 47.7053 46.91 46.2973 47.746C44.9333 48.582 43.4153 49 41.7433 49H12.5713ZM49.0806 49V1.48H85.5126C87.1846 1.48 88.7026 1.898 90.0666 2.734C91.4746 3.57 92.5966 4.692 93.4326 6.1C94.2686 7.464 94.6866 8.982 94.6866 10.654V19.96C94.6866 20.532 94.6426 21.082 94.5546 21.61C94.4666 22.138 94.3126 22.644 94.0926 23.128C94.8406 24.14 95.4346 25.196 95.8746 26.296C96.3586 27.396 96.6006 28.496 96.6006 29.596V39.826C96.6006 41.498 96.1826 43.038 95.3466 44.446C94.5106 45.81 93.3886 46.91 91.9806 47.746C90.5726 48.582 89.0326 49 87.3606 49H49.0806ZM58.5846 40.222H86.9646C87.1846 40.222 87.3826 40.156 87.5586 40.024C87.7346 39.848 87.8226 39.65 87.8226 39.43V29.992C87.8226 29.772 87.7346 29.596 87.5586 29.464C87.3826 29.288 87.1846 29.2 86.9646 29.2H58.5846C58.3646 29.2 58.1666 29.288 57.9906 29.464C57.8586 29.596 57.7926 29.772 57.7926 29.992V39.43C57.7926 39.65 57.8586 39.848 57.9906 40.024C58.1666 40.156 58.3646 40.222 58.5846 40.222ZM58.5846 20.422H85.1166C85.3366 20.422 85.5126 20.356 85.6446 20.224C85.7766 20.048 85.8426 19.85 85.8426 19.63V11.05C85.8426 10.83 85.7766 10.654 85.6446 10.522C85.5126 10.346 85.3366 10.258 85.1166 10.258H58.5846C58.3646 10.258 58.1666 10.346 57.9906 10.522C57.8586 10.654 57.7926 10.83 57.7926 11.05V19.63C57.7926 19.85 57.8586 20.048 57.9906 20.224C58.1666 20.356 58.3646 20.422 58.5846 20.422ZM35.4774 95C33.8054 95 32.2654 94.582 30.8574 93.746C29.4934 92.91 28.3934 91.81 27.5574 90.446C26.7214 89.038 26.3034 87.498 26.3034 85.826V56.654C26.3034 54.982 26.7214 53.464 27.5574 52.1C28.3934 50.692 29.4934 49.57 30.8574 48.734C32.2654 47.898 33.8054 47.48 35.4774 47.48H64.5834C66.2554 47.48 67.7954 47.898 69.2034 48.734C70.6114 49.57 71.7334 50.692 72.5694 52.1C73.4054 53.464 73.8234 54.982 73.8234 56.654V60.35H65.0454V57.05C65.0454 56.83 64.9574 56.654 64.7814 56.522C64.6054 56.346 64.4074 56.258 64.1874 56.258H35.8074C35.5874 56.258 35.3894 56.346 35.2134 56.522C35.0814 56.654 35.0154 56.83 35.0154 57.05V85.43C35.0154 85.65 35.0814 85.848 35.2134 86.024C35.3894 86.156 35.5874 86.222 35.8074 86.222H64.1874C64.4074 86.222 64.6054 86.156 64.7814 86.024C64.9574 85.848 65.0454 85.65 65.0454 85.43V76.85H54.2874V68.072H73.8234V85.826C73.8234 87.498 73.4054 89.038 72.5694 90.446C71.7334 91.81 70.6114 92.91 69.2034 93.746C67.7954 94.582 66.2554 95 64.5834 95H35.4774Z" fill="black"/>
</g>
<defs>
<clipPath id="clip0_125_194">
<rect width="100" height="100" fill="white" transform="translate(0 -3)"/>
</clipPath>
</defs>
</svg>
