<svg width="100" height="95" viewBox="0 0 100 95" fill="none" xmlns="http://www.w3.org/2000/svg">
<path d="M22.7791 48C21.5631 48 20.4431 47.696 19.4191 47.088C18.4271 46.48 17.6271 45.68 17.0191 44.688C16.4111 43.664 16.1071 42.544 16.1071 41.328V38.688H22.4431V41.04C22.4431 41.2 22.4911 41.344 22.5871 41.472C22.7151 41.568 22.8591 41.616 23.0191 41.616H43.7071C43.8671 41.616 43.9951 41.568 44.0911 41.472C44.2191 41.344 44.2831 41.2 44.2831 41.04V34.464C44.2831 34.304 44.2191 34.176 44.0911 34.08C43.9951 33.984 43.8671 33.936 43.7071 33.936H22.7791C21.5631 33.936 20.4431 33.632 19.4191 33.024C18.4271 32.416 17.6271 31.616 17.0191 30.624C16.4111 29.6 16.1071 28.464 16.1071 27.216V20.112C16.1071 18.896 16.4111 17.792 17.0191 16.8C17.6271 15.776 18.4271 14.96 19.4191 14.352C20.4431 13.744 21.5631 13.44 22.7791 13.44H43.9951C45.2111 13.44 46.3151 13.744 47.3071 14.352C48.3311 14.96 49.1471 15.776 49.7551 16.8C50.3631 17.792 50.6671 18.896 50.6671 20.112V22.752H44.2831V20.4C44.2831 20.24 44.2191 20.112 44.0911 20.016C43.9951 19.888 43.8671 19.824 43.7071 19.824H23.0191C22.8591 19.824 22.7151 19.888 22.5871 20.016C22.4911 20.112 22.4431 20.24 22.4431 20.4V26.976C22.4431 27.136 22.4911 27.264 22.5871 27.36C22.7151 27.456 22.8591 27.504 23.0191 27.504H43.9951C45.2111 27.504 46.3151 27.808 47.3071 28.416C48.3311 29.024 49.1471 29.84 49.7551 30.864C50.3631 31.856 50.6671 32.976 50.6671 34.224V41.328C50.6671 42.544 50.3631 43.664 49.7551 44.688C49.1471 45.68 48.3311 46.48 47.3071 47.088C46.3151 47.696 45.2111 48 43.9951 48H22.7791ZM49.3314 48V13.44H75.8274C77.0434 13.44 78.1474 13.744 79.1394 14.352C80.1634 14.96 80.9794 15.776 81.5874 16.8C82.1954 17.792 82.4994 18.896 82.4994 20.112V26.88C82.4994 27.296 82.4674 27.696 82.4034 28.08C82.3394 28.464 82.2274 28.832 82.0674 29.184C82.6114 29.92 83.0434 30.688 83.3634 31.488C83.7154 32.288 83.8914 33.088 83.8914 33.888V41.328C83.8914 42.544 83.5874 43.664 82.9794 44.688C82.3714 45.68 81.5554 46.48 80.5314 47.088C79.5074 47.696 78.3874 48 77.1714 48H49.3314ZM56.2434 41.616H76.8834C77.0434 41.616 77.1874 41.568 77.3154 41.472C77.4434 41.344 77.5074 41.2 77.5074 41.04V34.176C77.5074 34.016 77.4434 33.888 77.3154 33.792C77.1874 33.664 77.0434 33.6 76.8834 33.6H56.2434C56.0834 33.6 55.9394 33.664 55.8114 33.792C55.7154 33.888 55.6674 34.016 55.6674 34.176V41.04C55.6674 41.2 55.7154 41.344 55.8114 41.472C55.9394 41.568 56.0834 41.616 56.2434 41.616ZM56.2434 27.216H75.5394C75.6994 27.216 75.8274 27.168 75.9234 27.072C76.0194 26.944 76.0674 26.8 76.0674 26.64V20.4C76.0674 20.24 76.0194 20.112 75.9234 20.016C75.8274 19.888 75.6994 19.824 75.5394 19.824H56.2434C56.0834 19.824 55.9394 19.888 55.8114 20.016C55.7154 20.112 55.6674 20.24 55.6674 20.4V26.64C55.6674 26.8 55.7154 26.944 55.8114 27.072C55.9394 27.168 56.0834 27.216 56.2434 27.216ZM39.4381 82C38.2221 82 37.1021 81.696 36.0781 81.088C35.0861 80.48 34.2861 79.68 33.6781 78.688C33.0701 77.664 32.7661 76.544 32.7661 75.328V54.112C32.7661 52.896 33.0701 51.792 33.6781 50.8C34.2861 49.776 35.0861 48.96 36.0781 48.352C37.1021 47.744 38.2221 47.44 39.4381 47.44H60.6061C61.8221 47.44 62.9421 47.744 63.9661 48.352C64.9901 48.96 65.8061 49.776 66.4141 50.8C67.0221 51.792 67.3261 52.896 67.3261 54.112V56.8H60.9421V54.4C60.9421 54.24 60.8781 54.112 60.7501 54.016C60.6221 53.888 60.4781 53.824 60.3181 53.824H39.6781C39.5181 53.824 39.3741 53.888 39.2461 54.016C39.1501 54.112 39.1021 54.24 39.1021 54.4V75.04C39.1021 75.2 39.1501 75.344 39.2461 75.472C39.3741 75.568 39.5181 75.616 39.6781 75.616H60.3181C60.4781 75.616 60.6221 75.568 60.7501 75.472C60.8781 75.344 60.9421 75.2 60.9421 75.04V68.8H53.1181V62.416H67.3261V75.328C67.3261 76.544 67.0221 77.664 66.4141 78.688C65.8061 79.68 64.9901 80.48 63.9661 81.088C62.9421 81.696 61.8221 82 60.6061 82H39.4381Z" fill="black"/>
</svg>
